<?xml version="1.0" encoding="UTF-8" standalone="no"?>
<svg
   xmlns:dc="http://purl.org/dc/elements/1.1/"
   xmlns:cc="http://creativecommons.org/ns#"
   xmlns:rdf="http://www.w3.org/1999/02/22-rdf-syntax-ns#"
   xmlns:svg="http://www.w3.org/2000/svg"
   xmlns="http://www.w3.org/2000/svg"
   viewBox="0 0 864 1221.9427"
   height="1221.9427"
   width="864"
   xml:space="preserve"
   id="svg2"
   version="1.1"><metadata
     id="metadata8"><rdf:RDF><cc:Work
         rdf:about=""><dc:format>image/svg+xml</dc:format><dc:type
           rdf:resource="http://purl.org/dc/dcmitype/StillImage" /></cc:Work></rdf:RDF></metadata><defs
     id="defs6"><clipPath
       id="clipPath18"
       clipPathUnits="userSpaceOnUse"><path
         id="path16"
         d="M 0,916.457 H 648 V 0 H 0 Z" /></clipPath></defs><g
     transform="matrix(1.3333333,0,0,-1.3333333,0,1221.9427)"
     id="g10"><g
       id="g12"><g
         clip-path="url(#clipPath18)"
         id="g14"><g
           transform="translate(123.0257,162.5456)"
           id="g20"><path
             id="path22"
             style="fill:#2e8d93;fill-opacity:1;fill-rule:nonzero;stroke:none"
             d="m 0,0 -10.083,-4.804 c -1.356,5.703 -4.23,8.555 -8.617,8.555 -4.685,0 -7.028,-2.165 -7.028,-6.496 0,-1.726 0.439,-3.186 1.315,-4.383 0.876,-1.197 2.856,-2.235 5.941,-3.118 5.158,-1.482 8.934,-2.982 11.328,-4.494 2.394,-1.514 4.412,-3.948 6.053,-7.311 1.642,-3.362 2.462,-7.118 2.462,-11.27 0,-6.512 -1.76,-12.143 -5.277,-16.894 -3.52,-4.752 -8.736,-7.126 -15.649,-7.126 -5.185,0 -9.598,1.68 -13.24,5.041 -3.643,3.362 -6.044,8.353 -7.204,14.971 l 10.973,3.536 c 1.233,-6.724 4.662,-10.083 10.285,-10.083 2.713,0 4.734,0.747 6.067,2.243 1.331,1.495 1.997,3.281 1.997,5.36 0,2.112 -0.604,3.749 -1.813,4.91 -1.21,1.162 -3.542,2.253 -6.996,3.275 -6.442,1.902 -11.032,4.5 -13.772,7.792 -2.739,3.291 -4.109,8.103 -4.109,14.439 0,6.405 1.636,11.808 4.906,16.208 3.273,4.4 7.71,6.6 13.315,6.6 C -9.222,16.951 -2.84,11.301 0,0" /></g><g
           transform="translate(172.0315,178.3874)"
           id="g24"><path
             id="path26"
             style="fill:#2e8d93;fill-opacity:1;fill-rule:nonzero;stroke:none"
             d="m 0,0 v -44.881 c 0,-7.252 -0.581,-12.646 -1.742,-16.183 -1.162,-3.539 -3.306,-6.443 -6.432,-8.714 -3.127,-2.271 -7.124,-3.405 -11.992,-3.405 -4.869,0 -8.742,1.021 -11.621,3.062 -2.879,2.043 -5.036,4.945 -6.47,8.714 -1.432,3.765 -2.149,9.274 -2.149,16.526 V 0 h 12.863 v -44.881 c 0,-3.872 0.229,-6.723 0.686,-8.555 0.457,-1.829 1.372,-3.281 2.744,-4.355 1.371,-1.075 3.057,-1.611 5.059,-1.611 2.224,0 4.034,0.528 5.431,1.584 1.395,1.055 2.322,2.455 2.78,4.198 0.457,1.742 0.686,4.655 0.686,8.739 l 0,44.881 z" /></g><g
           transform="translate(203.8675,106.3132)"
           id="g28"><path
             id="path30"
             style="fill:#2e8d93;fill-opacity:1;fill-rule:nonzero;stroke:none"
             d="M 0,0 -12.484,58.769 V 0 H -22.42 V 72.074 H -3.962 L 4.919,28.936 14.263,72.074 H 32.777 V 0 H 20.841 V 58.769 L 8.112,0 Z" /></g><g
           transform="translate(258.0569,134.4558)"
           id="g32"><path
             id="path34"
             style="fill:#2e8d93;fill-opacity:1;fill-rule:nonzero;stroke:none"
             d="M 0,0 H 10.722 L 5.408,25.294 Z M 13.535,43.932 29.374,-28.143 H 16.635 l -3.117,14.837 H -2.843 l -3.172,-14.837 h -10.392 l 16.218,72.075 z" /></g><g
           transform="translate(327.8362,162.5456)"
           id="g36"><path
             id="path38"
             style="fill:#2e8d93;fill-opacity:1;fill-rule:nonzero;stroke:none"
             d="m 0,0 -10.082,-4.804 c -1.356,5.703 -4.23,8.555 -8.617,8.555 -4.685,0 -7.027,-2.165 -7.027,-6.496 0,-1.726 0.438,-3.186 1.315,-4.383 0.875,-1.197 2.856,-2.235 5.941,-3.118 5.157,-1.482 8.933,-2.982 11.327,-4.494 2.394,-1.514 4.412,-3.948 6.052,-7.311 1.643,-3.362 2.464,-7.118 2.464,-11.27 0,-6.512 -1.762,-12.143 -5.279,-16.894 -3.518,-4.752 -8.734,-7.126 -15.647,-7.126 -5.185,0 -9.599,1.68 -13.241,5.041 -3.643,3.362 -6.043,8.353 -7.203,14.971 l 10.972,3.536 c 1.233,-6.724 4.662,-10.083 10.285,-10.083 2.713,0 4.735,0.747 6.067,2.243 1.332,1.495 1.998,3.281 1.998,5.36 0,2.112 -0.605,3.749 -1.814,4.91 -1.209,1.162 -3.541,2.253 -6.996,3.275 -6.441,1.902 -11.032,4.5 -13.771,7.792 -2.74,3.291 -4.109,8.103 -4.109,14.439 0,6.405 1.635,11.808 4.906,16.208 3.272,4.4 7.709,6.6 13.313,6.6 C -9.221,16.951 -2.84,11.301 0,0" /></g><g
           transform="translate(376.0257,178.3874)"
           id="g40"><path
             id="path42"
             style="fill:#2e8d93;fill-opacity:1;fill-rule:nonzero;stroke:none"
             d="m 0,0 v -72.074 h -11.64 v 29.726 H -27.431 V -72.074 H -39.07 V 0 h 11.639 V -28.09 H -11.64 V 0 Z" /></g><g
           transform="translate(421.6966,106.3132)"
           id="g44"><path
             id="path46"
             style="fill:#4d535e;fill-opacity:1;fill-rule:nonzero;stroke:none"
             d="m 0,0 h -6.338 v 64.153 h -14.494 v 7.921 H 14.532 V 64.153 H 0 Z" /></g><g
           transform="translate(476.0052,114.2341)"
           id="g48"><path
             id="path50"
             style="fill:#4d535e;fill-opacity:1;fill-rule:nonzero;stroke:none"
             d="m 0,0 v -7.921 h -32.732 v 72.074 h 32.027 v -7.921 h -25.69 V 33.318 H -6.006 V 25.979 H -26.395 V 0 Z" /></g><g
           transform="translate(515.1878,130.5486)"
           id="g52"><path
             id="path54"
             style="fill:#4d535e;fill-opacity:1;fill-rule:nonzero;stroke:none"
             d="m 0,0 5.783,-1.847 c -2.768,-15.912 -9.02,-23.866 -18.758,-23.866 -6.401,0 -11.423,3.68 -15.069,11.043 -3.645,7.361 -5.468,16.415 -5.468,27.16 0,11.094 1.904,20.006 5.709,26.736 3.806,6.727 8.909,10.09 15.311,10.09 9.488,0 15.581,-7.726 18.275,-23.178 l -5.969,-1.691 c -2.174,11.476 -6.29,17.214 -12.343,17.214 -4.475,0 -7.94,-2.667 -10.4,-8 -2.459,-5.332 -3.687,-12.822 -3.687,-22.467 0,-8.835 1.26,-15.92 3.78,-21.252 2.522,-5.332 5.857,-8 10.01,-8 6.45,0 10.725,6.02 12.826,18.058" /></g><g
           transform="translate(564.973,106.3132)"
           id="g56"><path
             id="path58"
             style="fill:#4d535e;fill-opacity:1;fill-rule:nonzero;stroke:none"
             d="M 0,0 H -6.339 V 34.321 H -29.805 V 0 h -6.339 v 72.074 h 6.339 V 42.242 H -6.339 V 72.074 H 0 Z" /></g><g
           transform="translate(562.9515,811.6213)"
           id="g60"><path
             id="path62"
             style="fill:#2e8d93;fill-opacity:1;fill-rule:nonzero;stroke:none"
             d="m 0,0 h -435.824 c -23.239,0 -42.079,-18.84 -42.079,-42.079 v -66.76 -4.618 -133.905 -71.808 c 0,-23.002 18.647,-41.649 41.649,-41.649 h 71.808 51.121 v -147.758 h -164.578 v -113.457 h 164.578 71.765 c 23.026,0 41.692,18.666 41.692,41.692 v 71.765 147.758 71.864 c 0,22.971 -18.622,41.593 -41.593,41.593 h -71.864 -51.121 v 133.905 H 0 Z" /></g><path
           id="path64"
           style="fill:#4d535e;fill-opacity:1;fill-rule:nonzero;stroke:none"
           d="m 496.579,189.983 h 66.372 v 374.361 h -66.372 z" /><g
           transform="translate(128.9974,440.8015)"
           id="g66"><path
             id="path68"
             style="fill:#4d535e;fill-opacity:1;fill-rule:nonzero;stroke:none"
             d="M 0,0 C -30.167,0 -43.949,25.532 -43.949,25.532 V 0 -127.663 h 154.74 l 0,127.663 z" /></g><g
           transform="translate(208.3226,688.1375)"
           id="g70"><path
             id="path72"
             style="fill:#ef7058;fill-opacity:1;fill-rule:nonzero;stroke:none"
             d="m 0,0 v -113.456 h 122.944 c 23.102,0 41.83,-18.728 41.83,-41.83 v -298.105 c -3.366,-36.292 -26.575,-44.972 -26.575,-44.972 h 26.575 9.32 104.137 v 384.907 h 76.398 V 0 Z" /></g></g></g></g></svg>