<svg width="2940" height="620" viewBox="0 0 2940 620" fill="none" xmlns="http://www.w3.org/2000/svg">
<path d="M394.344 272.615C394.344 272.445 394.481 272.307 394.651 272.307H433.998C434.168 272.307 434.306 272.445 434.306 272.615V519.692C434.306 519.862 434.168 519.999 433.998 519.999H394.651C394.481 519.999 394.344 519.862 394.344 519.692V272.615Z" fill="#3F4651"/>
<path d="M433.998 184.615C434.168 184.615 434.305 184.753 434.305 184.922V266.222C434.305 266.392 434.168 266.529 433.998 266.529H388.503C388.333 266.529 388.195 266.667 388.195 266.837V519.692C388.195 519.862 388.058 520 387.888 520H305.198V306.115C305.198 284.045 287.306 266.153 265.236 266.153H199.453C199.283 266.153 199.146 266.016 199.146 265.846V184.922C199.146 184.753 199.283 184.615 199.453 184.615H433.998Z" fill="#F0674D"/>
<path d="M433.998 100C434.168 100 434.306 100.138 434.306 100.307V178.152C434.306 178.323 434.177 178.461 434.006 178.46C365.597 178.008 229.285 178.358 199.036 178.444C195.648 178.453 192.998 181.202 192.998 184.59V266.16C192.998 269.555 195.75 272.308 199.145 272.308H260.625C281.847 272.308 299.05 289.511 299.05 310.732V481.575C299.05 502.797 281.847 520 260.625 520H110.307C110.138 520 110 519.862 110 519.692V441.846C110 441.676 110.138 441.538 110.307 441.538H209.904C213.3 441.538 216.052 438.786 216.052 435.39V349.225C216.052 345.829 213.3 343.077 209.904 343.077H148.425C127.203 343.077 110 325.873 110 304.652V138.425C110 117.203 127.203 100 148.425 100H433.998Z" fill="#118A92"/>
<path d="M209.904 434.923C209.904 435.178 209.698 435.384 209.443 435.384H110.461C110.206 435.384 110 435.178 110 434.923V349.23H209.443C209.698 349.23 209.904 349.437 209.904 349.691V434.923Z" fill="#3F4651"/>
<path d="M305.198 481.538V520H277.532C291.365 520 305.198 500.769 305.198 481.538Z" fill="#F0674D"/>
<path d="M148.425 349.23H110V321.538C110 335.384 129.212 349.23 148.425 349.23Z" fill="#3F4651"/>
<path d="M608.715 520C577.634 520 554.129 511.25 538.199 493.75C522.27 475.861 514.306 450.389 514.306 417.333V394H574.914V422C574.914 448.444 585.987 461.667 608.132 461.667C619.011 461.667 627.17 458.556 632.609 452.333C638.437 445.722 641.35 435.222 641.35 420.833C641.35 403.722 637.465 388.75 629.695 375.917C621.925 362.694 607.55 346.944 586.57 328.667C560.151 305.333 541.696 284.333 531.206 265.667C520.716 246.611 515.471 225.222 515.471 201.5C515.471 169.222 523.63 144.333 539.948 126.833C556.265 108.944 579.965 100 611.046 100C641.739 100 664.856 108.944 680.396 126.833C696.325 144.333 704.29 169.611 704.29 202.667V219.583H643.682V198.583C643.682 184.583 640.962 174.472 635.523 168.25C630.083 161.639 622.119 158.333 611.629 158.333C590.261 158.333 579.576 171.361 579.576 197.417C579.576 212.194 583.462 226 591.232 238.833C599.391 251.667 613.96 267.222 634.94 285.5C661.748 308.833 680.202 330.028 690.303 349.083C700.405 368.139 705.456 390.5 705.456 416.167C705.456 449.611 697.102 475.278 680.396 493.167C664.079 511.056 640.185 520 608.715 520Z" fill="#F0674D"/>
<path d="M835.455 520C804.374 520 780.674 511.25 764.357 493.75C748.039 475.861 739.88 450.389 739.88 417.333V105.833H803.985V422C803.985 436 806.705 446.111 812.144 452.333C817.972 458.556 826.131 461.667 836.621 461.667C847.111 461.667 855.075 458.556 860.514 452.333C866.342 446.111 869.256 436 869.256 422V105.833H931.03V417.333C931.03 450.389 922.871 475.861 906.554 493.75C890.236 511.25 866.536 520 835.455 520Z" fill="#F0674D"/>
<path d="M976.687 105.833H1068.18L1108.98 398.083H1110.14L1150.94 105.833H1242.43V514.167H1181.82V205H1180.66L1134.04 514.167H1080.42L1033.8 205H1032.63V514.167H976.687V105.833Z" fill="#F0674D"/>
<path d="M1339.81 105.833H1426.64L1493.07 514.167H1428.97L1417.31 433.083V434.25H1344.47L1332.81 514.167H1273.37L1339.81 105.833ZM1409.74 378.833L1381.18 177H1380.02L1352.04 378.833H1409.74Z" fill="#F0674D"/>
<path d="M1605.81 520C1574.72 520 1551.22 511.25 1535.29 493.75C1519.36 475.861 1511.4 450.389 1511.4 417.333V394H1572V422C1572 448.444 1583.08 461.667 1605.22 461.667C1616.1 461.667 1624.26 458.556 1629.7 452.333C1635.53 445.722 1638.44 435.222 1638.44 420.833C1638.44 403.722 1634.56 388.75 1626.79 375.917C1619.01 362.694 1604.64 346.944 1583.66 328.667C1557.24 305.333 1538.79 284.333 1528.3 265.667C1517.81 246.611 1512.56 225.222 1512.56 201.5C1512.56 169.222 1520.72 144.333 1537.04 126.833C1553.36 108.944 1577.06 100 1608.14 100C1638.83 100 1661.95 108.944 1677.49 126.833C1693.42 144.333 1701.38 169.611 1701.38 202.667V219.583H1640.77V198.583C1640.77 184.583 1638.05 174.472 1632.61 168.25C1627.17 161.639 1619.21 158.333 1608.72 158.333C1587.35 158.333 1576.67 171.361 1576.67 197.417C1576.67 212.194 1580.55 226 1588.32 238.833C1596.48 251.667 1611.05 267.222 1632.03 285.5C1658.84 308.833 1677.29 330.028 1687.39 349.083C1697.49 368.139 1702.55 390.5 1702.55 416.167C1702.55 449.611 1694.19 475.278 1677.49 493.167C1661.17 511.056 1637.28 520 1605.81 520Z" fill="#F0674D"/>
<path d="M1739.3 105.833H1803.41V272.083H1872.17V105.833H1936.28V514.167H1872.17V330.417H1803.41V514.167H1739.3V105.833Z" fill="#F0674D"/>
<path d="M2016.28 106.72H2210.97V120.16H2016.28V106.72Z" fill="#3E4551"/>
<path d="M2106.91 513.28V106.72H2120.34V513.28H2106.91Z" fill="#3E4551"/>
<path d="M2657.43 303.28H2830.3V316.72H2657.43V303.28Z" fill="#3E4551"/>
<path d="M2657.43 513.28V106.72H2670.85V513.28H2657.43Z" fill="#3E4551"/>
<path d="M2816.87 513.28V106.72H2830.3V513.28H2816.87Z" fill="#3E4551"/>
<path d="M2251.25 106.72H2409.02V120.16H2251.25V106.72Z" fill="#3E4551"/>
<path d="M2251.25 499.84H2409.02V513.28H2251.25V499.84Z" fill="#3E4551"/>
<path d="M2251.25 303.28H2385.53V316.72H2251.25V303.28Z" fill="#3E4551"/>
<path d="M2251.25 513.28V106.72H2264.68V513.28H2251.25Z" fill="#3E4551"/>
<path d="M2617.14 235.372H2603.72V204.257C2603.72 84.3389 2462.73 82.5633 2462.73 204.257L2462.74 316.942H2449.31V204.257C2449.31 64.8039 2617.14 65.6923 2617.14 204.257V235.372Z" fill="#3E4551"/>
<path d="M2617.14 372.682H2603.72V415.743C2603.72 535.661 2462.73 537.437 2462.73 415.743L2462.74 303.058H2449.31V415.743C2449.31 555.196 2617.14 554.308 2617.14 415.743V372.682Z" fill="#3E4551"/>
</svg>
